<?xml version="1.0" encoding="utf-8"?>
<!DOCTYPE svg PUBLIC "-//W3C//DTD SVG 20010904//EN" "http://www.w3.org/TR/2001/REC-SVG-20010904/DTD/svg10.dtd">
<svg version="1.0" xmlns="http://www.w3.org/2000/svg" width="352px" height="280px" viewBox="0 0 352 280" preserveAspectRatio="xMidYMid meet">
 <g fill="#fffdfe">
  <path d="M0 140 l0 -140 176 0 176 0 0 140 0 140 -176 0 -176 0 0 -140z m174 29 c0 -0.5 -0.7 -1 -1.5 -1 -0.8 0 -1.5 0.5 -1.5 1 0 0.6 0.7 1 1.5 1 0.8 0 1.5 -0.4 1.5 -1z m41 -3.5 l0 -4.5 7.8 0 7.7 0 -0.3 -5.5 c-0.3 -4.3 0 -5.6 1.2 -6.1 2.2 -0.9 2 -4.7 -0.4 -6.9 -1.1 -1 -2 -2.4 -2 -3.2 0 -0.7 -0.4 -1.3 -1 -1.3 -0.5 0 -1 -1.6 -1 -3.5 0 -3.1 0.3 -3.5 2.5 -3.5 1.8 0 2.5 -0.5 2.5 -2 0 -1.1 -0.7 -2 -1.5 -2 -1.2 0 -1.5 -1.3 -1.5 -6 0 -5.7 -0.1 -6 -2.5 -6 -2.2 0 -2.5 -0.4 -2.5 -3.5 0 -1.9 0.5 -3.5 1 -3.5 0.6 0 1 -1.3 1 -3 0 -2 0.5 -3 1.5 -3 0.8 0 1.5 -0.6 1.5 -1.4 0 -0.8 0.3 -2.2 0.6 -3.1 0.6 -1.4 -3.5 -1.5 -47.9 -1.3 -46.2 0.3 -48.6 0.4 -50.6 2.2 -1.4 1.3 -1.9 2.6 -1.5 4 1.3 4.4 2.6 4.6 26.6 4.6 l22.8 0 0 3.3 0 3.4 -20.2 0.7 c-19.1 0.6 -20.4 0.8 -22.1 2.8 -2.8 3.4 -1.8 5.9 3.2 7.7 l4.3 1.6 -0.5 7.3 c-0.5 6.6 -0.4 7.2 1.4 7.2 1.2 0 1.9 0.7 1.9 2 0 1.1 0.7 2 1.5 2 0.8 0 1.5 0.7 1.5 1.5 0 0.8 0.5 1.5 1 1.5 1.3 0 1.3 7.7 -0.1 8.2 -1.4 0.5 0 3.8 1.7 3.8 0.8 0 1.4 0.3 1.4 0.8 0 0.4 5.6 0.6 12.5 0.4 10.1 -0.3 12.5 -0.1 12.5 1 0 1.1 3.1 1.4 16.3 1.3 l16.2 0 0.3 3.3 c0.5 5.2 3.2 4.2 3.2 -1.3z"/>
 </g>
 <g fill="#f1ffff">
  <path d="M176 174.2 c0 -1.4 -5.7 -4.2 -8.7 -4.2 -2.5 -0.1 -2.6 -0.2 -1 -1.4 3 -2.3 1.9 -2.8 -5.3 -2.5 -5.5 0.3 -7.4 0 -9 -1.4 -1.1 -0.9 -2.4 -1.7 -2.9 -1.7 -1.1 0 -3.1 -4.7 -3.1 -7.5 0 -1.6 0.6 -2.5 1.5 -2.5 0.8 0 1.5 -0.4 1.5 -1 0 -0.5 -0.4 -1 -1 -1 -0.5 0 -1 -0.6 -1 -1.4 0 -0.7 -1 -1.6 -2.1 -1.9 -1.4 -0.4 -2 -1.1 -1.6 -2 0.4 -1 -0.4 -1.7 -2.4 -2.1 -2.7 -0.5 -4 -3 -2.1 -3.8 1.4 -0.5 2.3 -7.8 1 -7.8 -0.7 0 -0.6 -0.5 0.1 -1.4 1 -1.1 0.8 -1.5 -0.6 -1.9 -1 -0.3 -0.1 -0.5 2 -0.6 l3.9 -0.1 -0.3 5.2 c-0.1 2.9 -0.1 6.3 -0.1 7.6 l0.2 2.2 42.5 0 42.5 0 0 -3.5 c0 -1.9 0.3 -3.5 0.8 -3.4 1.8 0.1 5 5.8 5.6 10.1 0.6 4.1 0.4 4.8 -1.3 5.8 -2.7 1.4 -2.7 3.8 -0.1 6.5 1.8 1.9 1.9 2.6 0.9 4.9 -1.3 2.8 -4 3.3 -13.6 2.7 -4.4 -0.2 -5.7 1.1 -2.5 2.5 1.2 0.5 0.5 0.9 -2.8 1.5 -2.5 0.4 -5.8 0.8 -7.4 0.8 -2.4 0.1 -2.7 -0.1 -1.6 -1.4 0.7 -0.9 1 -1.9 0.6 -2.3 -0.8 -0.7 -30.6 -0.5 -31.4 0.2 -0.2 0.3 0.5 1.7 1.7 3.2 2.7 3.5 2.7 4.4 -0.4 4.4 -1.4 0 -2.5 -0.4 -2.5 -0.8z m52 -16.6 c0 -1.9 0.5 -3.8 1 -4.1 0.6 -0.3 1 -1 1 -1.6 0 -1 -70.8 -1.3 -73.5 -0.3 -1.4 0.6 -1.3 0.8 0.5 2.1 1.2 0.9 2 2.5 2 4.4 l0 2.9 34.5 0 34.5 0 0 -3.4z"/>
  <path d="M232 132.5 c0 -1.8 0.5 -2.5 2 -2.5 2.4 0 2.8 3.5 0.4 4.4 -2.3 0.9 -2.4 0.8 -2.4 -1.9z"/>
 </g>
 <g fill="#e3dad3">
  <path d="M141.3 131.6 c-0.6 -0.8 -1 -1.6 -0.8 -1.8 0.3 -0.2 -1.2 -1 -3.3 -1.7 -4.6 -1.7 -6.4 -3 -5.5 -4.4 0.3 -0.5 0.6 -2.5 0.5 -4.3 -0.1 -1.8 0.6 -4.2 1.6 -5.3 1.5 -1.7 2.5 -1.9 9 -1.4 6.2 0.5 7.2 0.8 7.2 2.4 0 1.6 0.8 1.9 5.3 1.9 2.9 0 13.2 0.1 22.8 0.2 27.4 0.4 46.9 -0.1 46.9 -1.2 0 -0.6 -9.3 -1 -26 -1 -25 0 -26 -0.1 -26 -1.9 0 -1.1 0.8 -2.2 1.8 -2.4 1.6 -0.4 1.6 -0.5 0 -0.6 -1 0 -1.8 -0.8 -1.8 -1.6 0 -1.3 4 -1.5 29.9 -1.5 16.5 0 30.6 0.3 31.5 0.6 2.1 0.8 1 2.4 -1.6 2.4 -1.2 0 -1.8 0.3 -1.4 0.7 0.4 0.4 1.5 0.8 2.3 0.8 2.5 0 2.7 2.2 0.4 4.2 -2.6 2.2 -2.6 3.7 -0.3 7.1 1 1.5 1.9 4.4 1.9 6.5 0.1 3.6 0 3.7 -3.3 3.7 -3.1 0 -3.4 -0.3 -3.4 -3 l0 -3 -40 0 -40 0 0 3 c0 2.7 -0.3 3 -3.2 3 -1.8 -0.1 -3.8 -0.7 -4.5 -1.4z"/>
  <path d="M133.8 109.3 c1.2 -0.2 3 -0.2 4 0 0.9 0.3 -0.1 0.5 -2.3 0.4 -2.2 0 -3 -0.2 -1.7 -0.4z"/>
  <path d="M128 100.8 c0 -3.5 0 -3.5 5.3 -4.2 9.5 -1.1 9.7 -1 9.7 2.9 0 3 -0.3 3.5 -2.2 3.5 -1.3 0 -4.7 0.3 -7.5 0.6 l-5.3 0.7 0 -3.5z"/>
 </g>
 <g fill="#d7dbdc">
  <path d="M165.3 183.5 c-1.8 -2 -1.7 -7.5 0.1 -7.5 0.8 0 1.7 1.1 2 2.4 0.5 2 1.1 2.3 3.8 2.1 3 -0.2 3.3 -0.6 3.3 -3.4 0 -2.6 0.4 -3.1 2.2 -3.1 2 0 2.3 0.5 2.3 4 0 2.9 -0.4 4 -1.5 4 -0.8 0 -1.5 0.7 -1.5 1.5 0 2 -9 2 -10.7 0z"/>
  <path d="M221 179.4 c0 -2.8 0.3 -3.5 1.8 -3.2 1.9 0.4 2.3 2.4 1 5.1 -1.4 2.8 -2.8 1.9 -2.8 -1.9z"/>
  <path d="M219 173.6 c0 -0.8 -1.1 -1.7 -2.5 -2 -2.9 -0.7 -3.5 -4.2 -0.7 -4.8 1.7 -0.4 8.2 5.2 8.2 7.2 0 0.5 -1.1 1 -2.5 1 -1.5 0 -2.5 -0.6 -2.5 -1.4z"/>
  <path d="M184 163.2 l-30.5 -0.2 -2.3 -3.3 c-2.7 -4 -2.8 -6.8 -0.4 -9 1.7 -1.5 6.1 -1.7 43 -1.7 36 0 41.2 0.2 41.2 1.5 0 0.8 -0.4 1.5 -1 1.5 -0.5 0 -1 0.7 -1 1.5 0 0.8 -0.6 2.4 -1.2 3.6 -1.1 1.7 -1 2.2 0.6 3.5 1.1 0.7 1.8 1.5 1.5 1.8 -0.9 0.8 -20.8 1.1 -49.9 0.8z m-29 -5.7 c-0.7 -0.9 -1.5 -1.3 -1.8 -1 -0.3 0.2 0.1 1.1 0.8 2 0.7 0.9 1.5 1.3 1.8 1 0.3 -0.2 -0.1 -1.1 -0.8 -2z"/>
  <path d="M149 137.2 l0 -4.2 18.5 0 18.5 0 0 3.5 0 3.5 -7.2 0 c-4 0 -12.4 0.3 -18.5 0.7 l-11.3 0.6 0 -4.1z"/>
  <path d="M194 137.5 c0 -4.2 0.3 -4.3 16 -4.9 6.3 -0.3 13.6 -0.8 16.3 -1.1 3.1 -0.5 4.7 -0.3 4.7 0.4 0 0.6 1 1.1 2.3 1.1 2.1 0.1 2.1 0.1 0.4 1.5 -1.2 0.9 -1.7 2 -1.3 3.3 0.9 2.6 -2.9 3.2 -22.6 3.2 l-15.8 0 0 -3.5z"/>
  <path d="M204 118.3 c0 -2.2 0.4 -2.3 7.5 -2.3 7.1 0 7.5 0.1 7.5 2.3 0 2.1 -0.4 2.2 -7.5 2.2 -7.1 0 -7.5 -0.1 -7.5 -2.2z"/>
  <path d="M220 118.3 c0 -2.8 0.3 -3 8.5 -3.8 6.1 -0.7 6.8 -0.6 5.7 0.7 -0.7 0.8 -2.2 1.4 -3.5 1.3 -1.2 -0.1 -1.4 0 -0.4 0.2 0.9 0.2 1.7 1.2 1.7 2.1 0 1.4 -1 1.7 -6 1.7 -5.5 0 -6 -0.2 -6 -2.2z"/>
  <path d="M138 119 c0 -0.4 2.1 -1.1 4.8 -1.6 l4.7 -0.8 -5 -0.7 -5 -0.6 4.2 -0.1 c5.3 -0.2 7.3 0.6 7.3 2.9 0 1.7 -0.7 1.9 -5.5 1.8 -3 -0.1 -5.5 -0.5 -5.5 -0.9z"/>
  <path d="M225 101.5 c0 -3.4 0.1 -3.5 4.1 -3.5 3.8 0 4.1 0.2 3.6 2.2 -0.4 1.2 -0.1 2.8 0.5 3.5 0.8 1 0.1 1.3 -3.6 1.3 -4.6 0 -4.6 0 -4.6 -3.5z"/>
 </g>
 <g fill="#e3d5d6">
  <path d="M128.4 108.5 c-0.8 -0.5 -1.6 -3.3 -1.9 -6.2 -0.5 -4.7 -0.3 -5.3 2.1 -7.2 1.5 -1.1 3 -1.8 3.5 -1.5 0.5 0.3 0.9 -0.3 0.9 -1.3 0 -1.5 0.2 -1.6 1 -0.3 0.8 1.3 7.8 1.5 51.2 1.7 49.7 0.2 50.3 0.2 50.4 2.2 0.1 1.1 -0.3 1.8 -0.8 1.5 -0.5 -0.3 -1.2 0.3 -1.5 1.5 -0.4 1.4 -1.4 2.1 -3.2 2.2 -2.3 0.2 -2.3 0.2 -0.4 0.6 2.2 0.4 7 5.9 6 6.9 -0.9 1 -106 0.9 -107.3 -0.1z"/>
  <path d="M128.7 89.9 c-2.6 -1.5 -2 -2.9 1.3 -2.9 3.2 0 3.8 1.1 1.7 2.8 -0.8 0.7 -1.8 0.7 -3 0.1z"/>
 </g>
 <g fill="#d7dcd8">
  <path d="M228 156.1 c0 -1.2 0.5 -2.1 1 -2.1 0.6 0 1 0.6 1 1.4 0 0.8 -0.4 1.8 -1 2.1 -0.5 0.3 -1 -0.3 -1 -1.4z"/>
  <path d="M158.9 156.5 c-0.1 -0.3 -0.3 -0.9 -0.4 -1.5 -0.1 -0.5 -0.3 -1.4 -0.4 -2 0 -0.5 -0.8 -1 -1.6 -1 -0.8 0 -1.5 -0.7 -1.5 -1.5 0 -1 1.1 -1.5 3.5 -1.5 2.4 0 3.5 0.5 3.5 1.5 0 0.8 -0.7 1.5 -1.5 1.5 -0.8 0 -1.5 0.5 -1.5 1.1 0 0.6 0.7 0.9 1.5 0.5 1 -0.4 1.5 0.1 1.5 1.4 0 1.7 -2.8 3 -3.1 1.5z"/>
  <path d="M231 155.1 c0 -1.2 0.5 -2.1 1 -2.1 0.6 0 1 0.6 1 1.4 0 0.8 -0.4 1.8 -1 2.1 -0.5 0.3 -1 -0.3 -1 -1.4z"/>
  <path d="M227.7 151.3 c-1.3 -1.2 -0.7 -3.3 0.8 -3.3 2.3 0 1.8 -1.7 -0.7 -2.4 -3.7 -0.9 -74.4 -0.7 -77 0.3 -2.8 1 -8 0.3 -7.2 -1 0.3 -0.5 0.1 -0.9 -0.4 -0.9 -2 0 -3.5 -5.8 -2.3 -9.2 0.9 -2.4 0.8 -3.3 -0.1 -3.9 -1.6 -1 1.6 -2.4 3.7 -1.5 0.8 0.3 1.5 0.1 1.5 -0.4 0 -0.6 -2.1 -1 -4.6 -1 -2.7 0 -4.3 -0.4 -3.9 -1 0.3 -0.5 2.8 -1 5.6 -1 4.6 0 4.9 0.2 4.9 2.5 l0 2.5 41 0 41 0 0 -2.9 c0 -2.1 0.6 -3.2 2.1 -3.6 2.7 -0.9 3.1 -0.4 3.5 4.5 0.3 3.7 0 4.3 -2.9 6 -1.7 1.1 -2.6 2 -1.9 2 2 0 4.9 7.4 4.4 11.4 -0.4 3.3 -0.7 3.6 -3.6 3.6 -1.8 0 -3.6 -0.3 -3.9 -0.7z m-46.2 -14.7 c1.1 -0.2 -3.7 -0.4 -10.7 -0.5 -7.1 0 -12.8 0.2 -12.8 0.7 0 0.7 18.8 0.5 23.5 -0.2z m42.5 0.4 c-0.8 -0.5 -6.7 -1 -13 -1 -6.3 0 -12.2 0.5 -13 1 -1 0.7 3.3 1 13 1 9.7 0 14 -0.3 13 -1z m3.7 -1.5 c0 -1 -0.6 -1.4 -1.4 -1 -0.8 0.3 -1.8 0.5 -2.1 0.6 -0.4 0 0.2 0.4 1.3 0.9 1.1 0.5 2 0.9 2.1 0.9 0 0.1 0.1 -0.6 0.1 -1.4z"/>
  <path d="M228 118.6 c0 -0.9 0.7 -1.6 1.6 -1.6 1.7 0 1.4 2.2 -0.4 2.8 -0.7 0.2 -1.2 -0.3 -1.2 -1.2z"/>
  <path d="M227.7 103.3 c-0.4 -0.3 -0.7 -1.5 -0.7 -2.5 0 -1.3 0.8 -1.8 3 -1.8 3.8 0 4 2 0.3 2.1 l-2.8 0.1 2.5 0.7 c2.2 0.6 2.3 0.8 0.7 1.4 -2.3 0.9 -2.2 0.9 -3 0z"/>
  <path d="M229.8 96.3 c1.2 -0.2 3 -0.2 4 0 0.9 0.3 -0.1 0.5 -2.3 0.4 -2.2 0 -3 -0.2 -1.7 -0.4z"/>
 </g>
 <g fill="#ddd7d7">
  <path d="M208.3 183.5 c-1.8 -2 -1.7 -7.5 0.1 -7.5 0.8 0 1.6 1 1.9 2.3 0.5 1.7 1.3 2.2 3.9 2.1 3 -0.1 3.3 -0.4 3.3 -3.3 0 -2.6 0.4 -3.1 2.2 -3.1 2 0 2.3 0.5 2.3 4 0 2.9 -0.4 4 -1.5 4 -0.8 0 -1.5 0.7 -1.5 1.5 0 2 -9 2 -10.7 0z"/>
  <path d="M158.5 156.1 c-0.3 -0.6 0.3 -1.5 1.4 -2 2.7 -1.5 3.1 -1.4 3.1 0.9 0 2.1 -3.3 2.9 -4.5 1.1z"/>
  <path d="M174 155.6 c0 -0.2 1.8 -0.6 4 -0.8 2.2 -0.2 4 0 4 0.4 0 0.5 -1.8 0.8 -4 0.8 -2.2 0 -4 -0.2 -4 -0.4z"/>
  <path d="M157.8 151.3 c1.2 -0.2 3 -0.2 4 0 0.9 0.3 -0.1 0.5 -2.3 0.4 -2.2 0 -3 -0.2 -1.7 -0.4z"/>
  <path d="M224 137 c-1.2 -0.8 -1.1 -1 0.8 -1 1.2 0 2.2 0.5 2.2 1 0 1.3 -1.1 1.3 -3 0z"/>
  <path d="M221.8 133.3 c1.2 -0.2 3 -0.2 4 0 0.9 0.3 -0.1 0.5 -2.3 0.4 -2.2 0 -3 -0.2 -1.7 -0.4z"/>
  <path d="M135 119.2 l0 -3.8 5.8 -1.2 c7.2 -1.5 94.2 -1.7 94.2 -0.3 0 1.5 -2.2 2.6 -5 2.4 -1.6 -0.1 -1.9 0 -0.7 0.3 1 0.3 1.6 1.1 1.4 1.7 -0.5 1.6 -5.7 2.2 -5.7 0.6 0 -0.8 -0.4 -0.8 -1.5 0.1 -2 1.6 -7.5 2.1 -7.5 0.6 0 -0.6 -0.5 -0.4 -1 0.4 -0.7 1.2 -1 1.2 -1 0.1 0 -1 -1 -1.1 -4.2 -0.6 -2.4 0.4 -17.3 0.7 -33.3 0.8 -23 0.1 -29.5 -0.2 -31.5 -1.3 l-2.5 -1.4 2.5 -0.7 c1.7 -0.5 0.7 -0.7 -3 -0.6 -5 0.2 -5.5 0.4 -5.8 2.6 -0.2 1.3 0.2 2.8 1 3.2 1 0.7 0.9 0.9 -0.4 0.9 -1.4 0 -1.8 -0.8 -1.8 -3.8z"/>
  <path d="M138 118.9 c0 -1.1 2.1 -1.1 3.9 0 0.9 0.6 0.5 0.9 -1.3 0.9 -1.4 0 -2.6 -0.4 -2.6 -0.9z"/>
  <path d="M138 107 c0 -0.5 2 -1 4.5 -1 2.5 0 4.5 0.5 4.5 1 0 0.6 -2 1 -4.5 1 -2.5 0 -4.5 -0.4 -4.5 -1z"/>
  <path d="M223 107 c0 -0.5 2.3 -1 5 -1 2.8 0 5 0.5 5 1 0 0.6 -2.2 1 -5 1 -2.7 0 -5 -0.4 -5 -1z"/>
  <path d="M128.2 101.3 c0.2 -3 0.8 -3.9 2.8 -4.4 1.4 -0.4 25.2 -0.6 53 -0.6 l50.5 0.2 -51 0.5 c-28 0.3 -51.6 0.9 -52.3 1.4 -0.9 0.5 -1.2 2 -1 3.7 0.3 2 0 2.9 -0.9 2.9 -1 0 -1.3 -1.1 -1.1 -3.7z"/>
  <path d="M140.2 102.9 c-1 -1.5 -1.7 -1.8 -2.6 -1 -0.7 0.6 -2.4 0.7 -4.1 0.3 -7.7 -2.1 2.8 -2.7 49 -3 43.8 -0.2 48.8 0 47.1 1.3 -1.9 1.5 -1.9 1.5 0.3 1.5 2.1 0 2.1 0.1 0.6 1.7 -1.4 1.4 -1.8 1.4 -2.6 0.2 -0.7 -1.2 -0.9 -1.2 -0.9 0.1 0 1.1 -0.2 1.2 -0.8 0.3 -1.1 -1.7 -81.5 -2 -82 -0.4 -0.6 1.8 -2.6 1.3 -4 -1z"/>
 </g>
 <g fill="#d7d6db">
  <path d="M226.8 160.3 c1.2 -0.2 3 -0.2 4 0 0.9 0.3 -0.1 0.5 -2.3 0.4 -2.2 0 -3 -0.2 -1.7 -0.4z"/>
  <path d="M227.3 157.3 c-2.1 -0.7 -1.5 -3.3 0.7 -3.3 1.1 0 2 0.6 2 1.4 0 1.8 -1.1 2.5 -2.7 1.9z"/>
  <path d="M160 154.9 c0.8 -1.3 1.7 -1.8 2.8 -1.4 0.9 0.3 4.6 0.9 8.2 1.3 l6.5 0.6 -5 0.7 c-2.7 0.4 -6.9 0.8 -9.3 0.8 -4 0.1 -4.2 0 -3.2 -2z"/>
  <path d="M181.5 156 c-1.6 -0.4 -2.3 -0.8 -1.5 -1 1.3 -0.1 26.6 -0.2 28 0 0.3 0 -0.2 0.5 -1 1 -1.7 1.1 -21.1 1.1 -25.5 0z"/>
  <path d="M157.5 151 c0.7 -1.1 6.5 -1.1 11 0 2.3 0.6 1.2 0.8 -4.3 0.9 -4.7 0.1 -7.1 -0.3 -6.7 -0.9z"/>
  <path d="M180.3 151.3 c1.5 -0.2 3.7 -0.2 5 0 1.2 0.2 0 0.4 -2.8 0.4 -2.7 0 -3.8 -0.2 -2.2 -0.4z"/>
  <path d="M203.8 151.3 c1.2 -0.2 3.2 -0.2 4.5 0 1.2 0.2 0.2 0.4 -2.3 0.4 -2.5 0 -3.5 -0.2 -2.2 -0.4z"/>
  <path d="M225.3 151.3 c1.5 -0.2 3.9 -0.2 5.5 0 1.5 0.2 0.2 0.4 -2.8 0.4 -3 0 -4.3 -0.2 -2.7 -0.4z"/>
  <path d="M223.3 133.3 c1.5 -0.2 3.7 -0.2 5 0 1.2 0.2 0 0.4 -2.8 0.4 -2.7 0 -3.8 -0.2 -2.2 -0.4z"/>
  <path d="M145 119 c-1 -0.6 13.1 -1 38.8 -1 22.2 0 40.1 0.4 39.8 0.9 -0.7 1.1 -76.7 1.3 -78.6 0.1z"/>
  <path d="M164.3 115.3 c13.1 -0.2 34.3 -0.2 47 0 12.8 0.1 2.1 0.2 -23.8 0.2 -25.9 0 -36.3 -0.1 -23.2 -0.2z"/>
  <path d="M140 102.2 c0 -0.5 0.7 -1.3 1.6 -1.6 2.5 -0.9 6.4 -0.7 6.4 0.4 0 0.6 -0.8 1 -1.7 1 -1 0 -2.8 0.3 -4 0.6 -1.3 0.4 -2.3 0.2 -2.3 -0.4z"/>
  <path d="M160 100.9 c0 -0.7 1.5 -0.9 4 -0.6 5.8 0.6 6.2 1.7 0.7 1.7 -2.7 0 -4.7 -0.5 -4.7 -1.1z"/>
  <path d="M192 100.9 c0 -0.7 1.5 -0.9 4 -0.6 5.8 0.6 6.2 1.7 0.7 1.7 -2.7 0 -4.7 -0.5 -4.7 -1.1z"/>
 </g>
 <g fill="#3ca6d6">
  <path d="M151.4 161.9 c-2.8 -3.1 -2.5 -9.6 0.5 -12 2.2 -1.8 4.6 -1.9 42.7 -1.9 39.7 0 40.4 0 40.4 2 0 1.9 -0.8 2 -40.1 2.2 -37 0.3 -40.3 0.4 -41.3 2.1 -0.8 1.2 -0.8 2.2 0 3.5 0.9 1.4 2.9 1.7 12.3 2 10.3 0.2 11.1 0.4 11.1 2.2 0 1.9 -0.7 2 -11.8 2 -10.8 0 -12.1 -0.2 -13.8 -2.1z"/>
  <path d="M211 162 c0 -1.6 0.7 -2 3.5 -2 2.8 0 3.5 0.4 3.5 2 0 1.6 -0.7 2 -3.5 2 -2.8 0 -3.5 -0.4 -3.5 -2z"/>
  <path d="M224 162 c0 -1.6 0.7 -2 3.3 -2 4.7 0 7.7 1 7.7 2.6 0 1 -1.5 1.4 -5.5 1.4 -4.8 0 -5.5 -0.2 -5.5 -2z"/>
  <path d="M152.8 145.3 c1.2 -0.2 3.2 -0.2 4.5 0 1.2 0.2 0.2 0.4 -2.3 0.4 -2.5 0 -3.5 -0.2 -2.2 -0.4z"/>
  <path d="M161.8 145.3 c1.2 -0.2 3 -0.2 4 0 0.9 0.3 -0.1 0.5 -2.3 0.4 -2.2 0 -3 -0.2 -1.7 -0.4z"/>
  <path d="M210.3 145.3 c4.8 -0.2 12.5 -0.2 17 0 4.5 0.1 0.6 0.3 -8.8 0.3 -9.3 0 -13 -0.2 -8.2 -0.3z"/>
 </g>
 <g fill="#3b9bc7">
  <path d="M164.4 184.6 c-4.7 -4.7 -4.7 -9.5 0 -14.2 3.9 -3.9 7.7 -4.4 11.6 -1.7 3.9 2.7 4.9 4.5 5 8.6 0 4.9 -1.3 7.3 -5 9.2 -4.6 2.4 -7.8 1.9 -11.6 -1.9z m10.1 -4.6 c1.7 -1.8 1.7 -2.1 0.1 -4.5 -0.9 -1.4 -2.1 -2.5 -2.7 -2.5 -2.4 0 -4.9 2.2 -4.9 4.3 0 4.6 4.3 6.2 7.5 2.7z"/>
  <path d="M210.4 187 c-3.4 -1.3 -6.4 -5.9 -6.4 -9.7 0 -4.4 5.4 -10.3 9.4 -10.3 6 0 10.8 4.6 10.8 10.5 0 4.3 -1.6 7.2 -5.2 9 -3.2 1.7 -5.4 1.8 -8.6 0.5z m7.1 -7 c1.7 -1.8 1.7 -2.1 0.1 -4.5 -0.9 -1.4 -2.1 -2.5 -2.7 -2.5 -2.4 0 -4.9 2.2 -4.9 4.3 0 4.6 4.3 6.2 7.5 2.7z"/>
  <path d="M155 162.6 c0 -2 3.7 -2.2 40.7 -2.4 34.3 -0.2 39.3 0.1 39.3 2.4 0 1.8 -6.6 1.9 -7.3 0.2 -0.4 -1 -0.6 -1 -0.6 0 -0.1 1.5 -61.1 1.8 -61.1 0.2 0 -0.5 -1.1 -1 -2.5 -1 -1.4 0 -2.5 0.5 -2.5 1 0 0.6 -1.3 1 -3 1 -1.9 0 -3 -0.5 -3 -1.4z"/>
  <path d="M157.8 148.3 c1.2 -0.2 3 -0.2 4 0 0.9 0.3 -0.1 0.5 -2.3 0.4 -2.2 0 -3 -0.2 -1.7 -0.4z"/>
  <path d="M174.3 148.3 c5.9 -0.2 15.4 -0.2 21 0 5.6 0.1 0.8 0.3 -10.8 0.3 -11.6 0 -16.1 -0.2 -10.2 -0.3z"/>
  <path d="M166.8 145.3 c7.9 -0.2 20.5 -0.2 28 0 7.5 0.1 1.1 0.3 -14.3 0.3 -15.4 0 -21.6 -0.2 -13.7 -0.3z"/>
  <path d="M223.8 145.3 c2.3 -0.2 5.9 -0.2 8 0 2 0.2 0.1 0.4 -4.3 0.4 -4.4 0 -6.1 -0.2 -3.7 -0.4z"/>
 </g>
 <g fill="#e9951d">
  <path d="M145.6 129.5 c0.5 -1.2 -0.3 -1.5 -4.3 -1.5 -3.9 0 -5.4 -0.5 -7.1 -2.3 -2.9 -3 -2.8 -7.9 0.1 -11.2 l2.2 -2.5 19.5 -0.3 c10.7 -0.1 32.9 -0.1 49.3 0.1 27.8 0.2 29.8 0.3 29.5 2 -0.3 1.6 -3.7 1.7 -49.3 2.2 l-49 0.5 -0.3 2.3 c-0.7 5.1 -0.4 5.1 51.1 5.2 47 0 47.7 0 47.7 2 0 1.1 -0.7 2 -1.5 2 -2.1 0 -1.9 1.8 0.3 2.3 0.9 0.3 -18.6 0.5 -43.5 0.6 -39.8 0.1 -45.2 -0.1 -44.7 -1.4z"/>
  <path d="M134.8 109.3 c1.2 -0.2 3.2 -0.2 4.5 0 1.2 0.2 0.2 0.4 -2.3 0.4 -2.5 0 -3.5 -0.2 -2.2 -0.4z"/>
  <path d="M151 109 c0 -0.6 5.3 -1 14 -1 8.7 0 14 0.4 14 1 0 0.6 -5.3 1 -14 1 -8.7 0 -14 -0.4 -14 -1z"/>
  <path d="M206.7 109.3 c1.8 -0.2 5 -0.2 7 0 2.1 0.2 0.7 0.4 -3.2 0.4 -3.8 0 -5.5 -0.2 -3.8 -0.4z"/>
  <path d="M222.8 109.3 c2.3 -0.2 5.9 -0.2 8 0 2 0.2 0.1 0.4 -4.3 0.4 -4.4 0 -6.1 -0.2 -3.7 -0.4z"/>
 </g>
 <g fill="#dd8f2b">
  <path d="M229 129.5 c0 -0.8 0.7 -1.5 1.5 -1.5 0.8 0 1.5 0.4 1.5 0.9 0 0.5 0.8 1.2 1.8 1.4 0.9 0.3 0.2 0.5 -1.5 0.6 -2.3 0.1 -3.3 -0.4 -3.3 -1.4z"/>
  <path d="M232 126.6 c0 -0.8 0.7 -1.6 1.5 -2 1 -0.4 1.5 0.1 1.5 1.4 0 1.1 -0.7 2 -1.5 2 -0.8 0 -1.5 -0.6 -1.5 -1.4z"/>
  <path d="M232.4 113.5 c-1.9 -1.4 -1.8 -1.4 0.4 -1.5 1.3 0 2.2 0.6 2.2 1.5 0 1.9 -0.1 1.9 -2.6 0z"/>
  <path d="M145.5 112 c4.4 -0.4 8.4 -0.3 8.9 0.1 0.6 0.5 -2.9 0.8 -8 0.7 l-8.9 -0.1 8 -0.7z"/>
  <path d="M170.3 112.3 c7.1 -0.2 18.3 -0.2 25 0 6.7 0.1 1 0.3 -12.8 0.3 -13.7 0 -19.2 -0.2 -12.2 -0.3z"/>
  <path d="M215.8 112.3 c1.2 -0.2 3.2 -0.2 4.5 0 1.2 0.2 0.2 0.4 -2.3 0.4 -2.5 0 -3.5 -0.2 -2.2 -0.4z"/>
  <path d="M142 109.1 c4.1 -0.3 21.2 -0.4 38 0 l30.5 0.5 -38 0.1 c-20.9 0 -34.6 -0.3 -30.5 -0.6z"/>
  <path d="M216.8 109.3 c3.4 -0.2 9 -0.2 12.5 0 3.4 0.2 0.6 0.3 -6.3 0.3 -6.9 0 -9.7 -0.1 -6.2 -0.3z"/>
 </g>
 <g fill="#8eb631">
  <path d="M143.7 144.6 c-0.9 -0.7 -2.2 -2.7 -2.8 -4.4 -1.2 -3.5 -0.2 -6.2 3.8 -9.9 l2.4 -2.3 42.5 0 c27.6 0 42.4 0.3 42.4 1 0 0.6 0.7 1 1.5 1 0.8 0 1.5 0.9 1.5 2 0 2 -0.7 2 -44.3 2 -43.8 0 -46.7 0.2 -46.7 3.2 0 0.4 1 1.6 2.2 2.8 2.1 1.9 3.3 2 45.5 2 42.6 0 43.3 0 43.3 2 0 2 -0.7 2 -44.7 2 -35.7 -0.1 -45.2 -0.3 -46.6 -1.4z"/>
 </g>
 <g fill="#af1e28">
  <path d="M221.9 181.3 c-1.1 -0.3 -1.5 -1.2 -1.1 -2.8 0.6 -3.6 3.2 -3.2 3.2 0.5 0 1.7 -0.1 2.9 -0.2 2.9 -0.2 -0.1 -1 -0.3 -1.9 -0.6z"/>
  <path d="M173.6 174.2 c-0.4 -0.7 -1.5 -1.2 -2.5 -1.2 -1 0 -2.4 -0.6 -3 -1.3 -0.9 -1.1 0 -1.4 4.7 -1.6 4.9 -0.1 5.9 0.1 7 2 1.3 2.1 1.3 2.2 -1.6 1.6 -1.9 -0.4 -3.2 -0.2 -3.4 0.5 -0.3 0.9 -0.6 0.9 -1.2 0z"/>
  <path d="M211.5 172.2 c-0.7 -1.8 -0.7 -1.8 1.3 -1.8 0.9 0 3.1 -0.4 4.9 -0.8 2.6 -0.6 3.4 -0.4 4.3 1.3 1.2 2.3 1.6 2.1 -7 2.5 -1.7 0 -3.2 -0.5 -3.5 -1.2z"/>
  <path d="M128.5 107.5 c-3.4 -3.3 -3.4 -8.3 0.1 -11.6 l2.6 -2.4 51.9 -0.3 c51.6 -0.3 51.9 -0.3 51.9 1.8 0 2 -0.4 2 -50.6 2 -32.9 0 -51.2 0.4 -52.5 1 -2.1 1.2 -2.5 5 -0.7 6.8 0.9 0.9 13.9 1.2 52.5 1.2 50.6 0 51.3 0 51.3 2 0 2 -0.7 2 -52 2 l-52.1 0 -2.4 -2.5z"/>
  <path d="M126.3 86.3 c-0.8 -2.1 -1.9 -4.8 -2.4 -6 -0.8 -2.2 -1.4 -2.3 -11.4 -2.3 -8.5 0 -10.7 -0.3 -11.1 -1.5 -0.4 -0.8 -0.1 -2.2 0.6 -3 1.1 -1.3 3.6 -1.5 13.4 -1.3 l12.1 0.3 2.7 7.9 c2.9 8.2 2.9 9.6 -0.3 9.6 -1.4 0 -2.5 -1.2 -3.6 -3.7z"/>
 </g>
 <g fill="#951820">
  <path d="M232 108 c0 -1.1 0.7 -2 1.5 -2 0.8 0 1.5 0.9 1.5 2 0 1.1 -0.7 2 -1.5 2 -0.8 0 -1.5 -0.9 -1.5 -2z"/>
  <path d="M126 101 c0 -0.5 0.7 -1 1.5 -1 0.8 0 1.5 0.5 1.5 1 0 0.6 -0.7 1 -1.5 1 -0.8 0 -1.5 -0.4 -1.5 -1z"/>
  <path d="M232 96 c0 -0.5 -0.6 -1 -1.4 -1 -0.8 0 -1.8 -0.4 -2.1 -1 -0.4 -0.6 0.8 -1 2.9 -1 2.9 0 3.6 0.4 3.6 2 0 1.1 -0.7 2 -1.5 2 -0.8 0 -1.5 -0.4 -1.5 -1z"/>
  <path d="M135.6 94.2 c-0.2 -0.4 0.6 -0.9 2 -1 1.3 -0.1 2.4 0.3 2.4 0.8 0 1.2 -3.7 1.4 -4.4 0.2z"/>
  <path d="M141.5 94 c0.3 -0.5 1.6 -1 2.8 -1 1.8 0 1.9 0.2 0.7 1 -2 1.3 -4.3 1.3 -3.5 0z"/>
  <path d="M159.7 94.2 c1.9 -1.2 65.1 -1.5 63.3 -0.2 -0.9 0.6 -13.4 1 -33 1 -17.3 0 -30.9 -0.4 -30.3 -0.8z"/>
  <path d="M126.9 87.9 c-0.9 -1.7 -0.8 -2 0.3 -1.3 0.7 0.5 2.4 0.7 3.8 0.5 2.1 -0.3 2.2 -0.1 1.1 1.3 -1.8 2.2 -3.8 2 -5.2 -0.5z"/>
 </g>
</svg>