<?xml version="1.0" encoding="utf-8"?>
<!DOCTYPE svg PUBLIC "-//W3C//DTD SVG 20010904//EN" "http://www.w3.org/TR/2001/REC-SVG-20010904/DTD/svg10.dtd">
<svg version="1.0" xmlns="http://www.w3.org/2000/svg" width="192px" height="165px" viewBox="0 0 192 165" preserveAspectRatio="xMidYMid meet">
 <g fill="#fbf9fb">
  <path d="M0 82.5 l0 -82.5 96 0 96 0 0 82.5 0 82.5 -96 0 -96 0 0 -82.5z m115.7 -17.7 c-0.2 -3.5 -0.3 -0.9 -0.3 5.7 0 6.6 0.1 9.4 0.3 6.3 0.2 -3.2 0.2 -8.6 0 -12z m-39 -7 c-0.1 -4.6 -0.3 -1.1 -0.3 7.7 0 8.8 0.2 12.5 0.3 8.3 0.2 -4.2 0.2 -11.4 0 -16z m-24.7 13.7 c0 -4.2 -0.3 -5.5 -1.5 -5.5 -1.2 0 -1.5 1.3 -1.5 5.5 0 4.2 0.3 5.5 1.5 5.5 1.2 0 1.5 -1.3 1.5 -5.5z m36 -13.7 c0 -4.5 -0.2 -7.9 -0.4 -7.7 -1 1.1 -1.6 15.9 -0.6 15.9 0.6 0 1 -3.2 1 -8.2z m-36.2 0 c-0.6 -1.8 -2.8 -2.1 -2.8 -0.4 0 0.9 0.7 1.6 1.6 1.6 0.9 0 1.4 -0.5 1.2 -1.2z m91.2 -0.8 c0 -0.5 -0.7 -1 -1.5 -1 -0.8 0 -1.5 0.5 -1.5 1 0 0.6 0.7 1 1.5 1 0.8 0 1.5 -0.4 1.5 -1z"/>
 </g>
 <g fill="#404858">
  <path d="M42 124.1 c0 -1.6 -0.6 -3.2 -1.2 -3.4 -0.7 -0.3 -0.4 -0.6 0.7 -0.6 1.8 -0.1 2 0.4 1.7 3.4 -0.5 4.3 -1.2 4.6 -1.2 0.6z"/>
  <path d="M50 125.5 c0 -1.8 -2.1 -2 -3.9 -0.2 -1 1 -1.1 0.9 -0.6 -0.5 0.4 -1 1.5 -1.8 2.5 -1.8 1 0 2 -0.6 2.3 -1.2 0.2 -0.7 0.4 0.2 0.5 2 0 1.7 -0.1 3.2 -0.4 3.2 -0.2 0 -0.4 -0.7 -0.4 -1.5z"/>
  <path d="M52 123.5 c0 -2.7 0.4 -3.5 1.8 -3.5 1.4 0 1.5 0.2 0.2 1 -1.3 0.9 -1.3 1.1 0 2 1 0.6 1.1 1 0.3 1 -1.9 0 -1.6 1.8 0.5 2.3 1.3 0.4 1.1 0.5 -0.5 0.6 -2 0.1 -2.3 -0.4 -2.3 -3.4z"/>
  <path d="M59 123.5 c0 -1.9 0.4 -3.5 1 -3.5 0.5 0 0.7 0.7 0.4 1.5 -0.4 0.8 -0.2 1.5 0.4 1.5 0.6 0 1.2 -0.6 1.5 -1.2 0.2 -0.7 0.4 0.2 0.5 2 0 2.5 -0.3 3.2 -1.9 3.2 -1.5 0 -1.9 -0.7 -1.9 -3.5z"/>
  <path d="M64.7 126.4 c-1.2 -1.2 -0.8 -4.1 0.8 -5.4 2 -1.7 4.7 0.5 4.3 3.4 -0.3 2.1 -3.7 3.4 -5.1 2z m4.1 -2.6 c-0.2 -1.3 -1 -2.3 -1.8 -2.3 -0.8 0 -1.6 1 -1.8 2.3 -0.3 1.7 0.2 2.2 1.8 2.2 1.6 0 2.1 -0.5 1.8 -2.2z"/>
  <path d="M71.7 126.3 c-1.3 -1.3 -0.7 -5.1 1 -5.7 2.3 -0.9 4.7 1.7 3.8 4.3 -0.6 2 -3.4 2.8 -4.8 1.4z m3.8 -2.8 c0 -2.8 -2.9 -2.5 -3.3 0.3 -0.3 1.9 0 2.3 1.5 2 1 -0.2 1.8 -1.2 1.8 -2.3z"/>
  <path d="M78.1 124 c0.1 -1.9 0.3 -2.9 0.6 -2.2 0.4 1 0.8 1 2.1 0 1.5 -1.1 1.5 -1.1 0.4 0.4 -0.9 1.1 -1 1.8 -0.2 2.3 0.5 0.3 1 1.2 1 1.8 0 0.7 -0.6 0.3 -1.2 -0.8 -1.1 -1.9 -1.1 -1.9 -1.9 0 -0.6 1.5 -0.8 1.1 -0.8 -1.5z"/>
  <path d="M84.3 126.3 c2.1 -0.6 2.2 -1.2 0 -2.8 -1.7 -1.2 -1.1 -3.5 1 -3.5 0.7 0 0.6 0.4 -0.3 1 -1.3 0.9 -1.3 1.2 0.3 2.1 2.5 1.5 2.2 3.9 -0.5 3.8 -1.7 -0.1 -1.9 -0.2 -0.5 -0.6z"/>
  <path d="M90.1 124.3 c0 -1.7 0.3 -3.5 0.9 -3.8 0.5 -0.3 0.7 0 0.4 0.9 -0.3 0.8 0.2 1.6 1.3 1.9 1.5 0.4 1.5 0.5 0.1 0.6 -0.9 0 -1.9 0.9 -2.1 1.9 -0.3 0.9 -0.5 0.3 -0.6 -1.5z"/>
  <path d="M95.7 126.3 c-1.3 -1.3 -0.7 -5.1 1 -5.7 2.3 -0.9 4.7 1.7 3.8 4.3 -0.6 2 -3.4 2.8 -4.8 1.4z m3.8 -2.8 c0 -2.8 -2.9 -2.5 -3.3 0.3 -0.3 1.9 0 2.3 1.5 2 1 -0.2 1.8 -1.2 1.8 -2.3z"/>
  <path d="M102 124.1 c0 -1.7 0.4 -3.2 0.8 -3.5 0.4 -0.2 0.6 1.1 0.4 3 -0.5 4.2 -1.2 4.5 -1.2 0.5z"/>
  <path d="M104.6 125.4 c-0.3 -0.9 -0.2 -2.2 0.2 -3.1 0.6 -1 0.9 -0.5 0.9 1.6 0 3.5 -0.2 3.8 -1.1 1.5z"/>
  <path d="M109 123.8 c0 -1.8 0.4 -2.8 0.8 -2.2 0.4 0.6 1.4 1.4 2.2 1.7 1.2 0.4 1.1 0.6 -0.2 0.6 -1 0.1 -1.8 0.5 -1.8 1 0 0.5 0.8 1.2 1.8 1.4 1.3 0.4 1.1 0.5 -0.5 0.6 -1.9 0.1 -2.3 -0.4 -2.3 -3.1z"/>
  <path d="M115 124.4 c-1.4 -3.6 -1.2 -4.3 0.5 -1.4 1 1.8 1.4 2 1.5 0.8 0 -0.9 0.4 -1.9 1 -2.3 0.5 -0.3 0.5 0.7 -0.1 2.5 -1.3 3.7 -1.7 3.7 -2.9 0.4z"/>
  <path d="M120.1 123.3 c0.1 -2.1 0.3 -3 0.6 -2 0.2 0.9 1 1.7 1.6 1.7 0.7 0 0.6 0.4 -0.3 1 -1.3 0.9 -1.3 1.1 0 2 1.3 0.8 1.2 1 -0.2 1 -1.4 0 -1.8 -0.8 -1.7 -3.7z"/>
  <path d="M125.2 123.7 c-0.2 -3.2 0.1 -3.8 1.5 -3.5 1.2 0.2 1.8 1.4 2 3.8 0.2 2.6 0 3.1 -0.7 2 -0.5 -0.8 -0.7 -2.3 -0.4 -3.2 0.3 -1 0.1 -1.8 -0.5 -1.8 -0.5 0 -1.2 1.5 -1.4 3.3 -0.4 3.1 -0.4 3.1 -0.5 -0.6z"/>
  <path d="M130.6 123.8 c-0.3 -1.7 -0.4 -3.3 -0.1 -3.6 0.3 -0.3 0.5 0.3 0.5 1.3 0 1.4 0.3 1.5 1.5 0.5 1.3 -1.1 1.3 -0.8 0.4 1.9 -0.6 1.7 -1.2 3.1 -1.4 3.1 -0.1 0 -0.5 -1.4 -0.9 -3.2z"/>
  <path d="M135.4 125.6 c-0.3 -0.8 -0.4 -2.3 -0.1 -3.3 0.3 -1.2 0.5 -0.8 0.6 1 0.1 1.7 0.7 2.7 1.6 2.7 2.4 0 3 -2.9 0.9 -4.6 -1.8 -1.4 -1.8 -1.4 0.4 -0.4 3 1.5 2.7 5.4 -0.6 5.8 -1.3 0.2 -2.4 -0.3 -2.8 -1.2z"/>
  <path d="M144.2 124.5 c-1.2 -1.4 -2.2 -3.1 -2.2 -3.8 0 -0.6 0.9 0.1 1.9 1.7 l1.9 2.9 0.5 -2.4 c0.3 -1.9 0.5 -1.7 0.6 0.9 0 1.7 0 3.2 -0.2 3.2 -0.2 0 -1.3 -1.1 -2.5 -2.5z"/>
  <path d="M148 124.1 c0 -1.7 0.4 -3.3 1 -3.6 0.5 -0.3 0.7 0 0.4 0.9 -0.3 0.8 0.2 1.6 1.3 1.9 1.6 0.4 1.6 0.5 0.1 0.6 -1 0 -1.8 0.5 -1.8 1 0 0.5 0.8 1.2 1.8 1.4 1.3 0.4 1.1 0.5 -0.5 0.6 -1.9 0.1 -2.3 -0.4 -2.3 -2.8z"/>
  <path d="M29.7 117.3 c-1.6 -0.4 -1.7 -1.6 -1.5 -11.1 l0.3 -10.7 4.8 0.1 c3.1 0 5.2 0.6 5.8 1.5 1.2 1.9 1.1 6.3 -0.1 7.5 -0.8 0.8 -0.6 1.5 0.5 2.4 2 1.7 1.9 6.3 -0.2 8.2 -2 1.8 -6.9 2.8 -9.6 2.1z m7.1 -6 c0.2 -1.4 -0.4 -2.6 -1.7 -3.3 -1.9 -1 -2.1 -0.8 -2.1 2.5 0 2.9 0.3 3.6 1.8 3.3 0.9 -0.2 1.8 -1.3 2 -2.5z m-1.3 -10.3 c0 -1.3 -0.5 -2.5 -1.1 -2.7 -1.3 -0.4 -2.3 2.5 -1.6 4.5 0.7 2.1 2.7 0.8 2.7 -1.8z"/>
  <path d="M47.3 116.5 c-4.8 -3.4 -5.4 -14.6 -1.1 -19.2 4.5 -4.8 9.8 -1.6 10.8 6.5 0.7 5.6 -0.5 10 -3.2 12.5 -2.5 2.1 -3.7 2.1 -6.5 0.2z m4.7 -4.4 c1.2 -2.4 1.3 -10.1 0.1 -12 -0.5 -0.8 -1.6 -1.1 -2.5 -0.8 -1.2 0.5 -1.6 2.1 -1.6 7 0 3.5 0.3 6.7 0.7 7 1.1 1.2 2.2 0.8 3.3 -1.2z"/>
  <path d="M62.5 115.7 c-2.1 -1.8 -2.8 -3.4 -3.2 -8.2 -0.5 -5.5 -0.3 -6.3 2.2 -9.3 6.4 -7.6 13.5 -0.2 11.3 11.8 -0.8 4.4 -3.6 8 -6.4 8 -0.7 0 -2.5 -1 -3.9 -2.3z m5.5 -3.6 c2 -3.8 0.9 -13.1 -1.6 -13.1 -2 0 -2.7 1.8 -2.6 7.6 0.1 7.3 1.9 9.7 4.2 5.5z"/>
  <path d="M97.8 117.3 c-1 -0.2 -1.8 -1.2 -1.8 -2.2 0 -1.4 0.6 -1.7 3 -1.3 4.8 0.7 5.1 -2.3 0.6 -6.4 -6 -5.5 -4.1 -12.4 3.6 -12.4 2.1 0 2.8 0.5 2.8 2 0 1.5 -0.7 2 -2.5 2 -4.2 0 -4.2 2.8 -0.1 6.1 2.6 2.2 3.6 3.8 3.6 5.8 0 4.2 -4.8 7.5 -9.2 6.4z"/>
  <path d="M124.7 116 c-4.5 -3.6 -4.9 -14.3 -0.6 -18.9 2.7 -2.9 6.3 -2.7 8.9 0.7 1.9 2.3 2.1 3.7 1.8 9.6 -0.3 5.7 -0.8 7.2 -2.7 8.7 -2.9 2.4 -4.2 2.4 -7.4 -0.1z m5.4 -4.1 c1.1 -2.1 0.8 -11.3 -0.4 -12.5 -0.3 -0.4 -1.3 -0.4 -2.2 -0.1 -1.1 0.5 -1.5 2.2 -1.5 7 0 3.5 0.3 6.7 0.7 7 1.1 1.2 2.2 0.8 3.4 -1.4z"/>
  <path d="M76 106 c0 -10.2 0.1 -11 1.9 -11 1.7 0 2 0.8 2.3 4.8 l0.3 4.7 2.2 -4.7 c1.6 -3.5 2.8 -4.8 4.2 -4.8 2.6 0 2.6 0.6 -0.4 5.4 l-2.4 3.9 2.1 5.1 c1.1 2.8 2.2 5.7 2.5 6.4 0.3 0.7 -0.4 1.2 -1.9 1.2 -2 0 -2.7 -0.7 -3.7 -4 -1.4 -4.7 -3.1 -4.4 -3.1 0.6 0 2.7 -0.4 3.4 -2 3.4 -1.9 0 -2 -0.7 -2 -11z"/>
  <path d="M112 108 c0 -8.3 -0.1 -9 -2 -9 -1.3 0 -2 -0.7 -2 -2 0 -1.8 0.7 -2 6 -2 5.3 0 6 0.2 6 2 0 1.3 -0.7 2 -2 2 -1.7 0 -2 0.6 -1.9 4.3 0.3 11.6 0 13.7 -2.1 13.7 -1.9 0 -2 -0.7 -2 -9z"/>
  <path d="M138 106 l0 -11 3.5 0 c7.4 0 10.7 4.1 7.9 9.6 -0.9 1.6 -1.1 3.2 -0.5 4.2 0.4 1 1.1 3.2 1.4 5 0.6 2.7 0.4 3.2 -1.4 3.2 -2 0 -2.3 -0.4 -3.3 -5.2 -1 -4.5 -3.6 -3.5 -3.6 1.2 0 3.3 -0.3 4 -2 4 -1.9 0 -2 -0.7 -2 -11z m7.8 -3.9 c0.4 -2.3 -1.5 -4.4 -3 -3.5 -0.4 0.3 -0.8 1.9 -0.8 3.5 0 2.4 0.4 3 1.8 2.7 0.9 -0.2 1.9 -1.4 2 -2.7z"/>
  <path d="M153.9 109.5 c-0.1 -4.1 -0.1 -8.6 -0.1 -10 0 -1.4 0 -2.9 0.1 -3.5 0.1 -0.5 2.1 -1 4.6 -1 3.8 0 4.5 0.3 4.5 2 0 1.5 -0.7 2 -2.5 2 -2 0 -2.5 0.5 -2.5 2.5 0 2 0.5 2.5 2.5 2.5 1.8 0 2.5 0.5 2.5 2 0 1.5 -0.7 2 -2.5 2 -2.1 0 -2.5 0.5 -2.5 3 0 1.7 0.3 2.9 0.8 2.9 2.7 -0.5 5.2 0.3 5.2 1.6 0 1.1 -1.2 1.5 -5 1.5 l-5 0 -0.1 -7.5z"/>
  <path d="M47.2 85.8 c-1.5 -1.5 -1.7 -33.4 -0.2 -34.3 0.6 -0.3 1 -0.1 1 0.5 0 0.7 0.7 1 1.5 0.6 1.3 -0.5 1.5 1 1.5 9.9 0 8.4 0.3 10.5 1.4 10.5 0.9 0 1.7 1.6 2.1 4.1 1.2 6.7 2.4 2.6 2.7 -8.6 l0.2 -10 0.6 10 0.6 10 0.2 -13.2 c0.1 -7.5 0.6 -13.4 1.2 -13.8 0.6 -0.3 1 -1.9 1 -3.6 0 -1.6 0.5 -2.9 1 -2.9 0.7 0 1 6.2 1 18.2 -0.2 19.1 0.1 21.5 2.5 21.5 1.3 0 1.5 -3.2 1.7 -19.6 l0.2 -19.6 0.6 20 0.6 20 0.4 -20.5 0.4 -20.5 0.6 20.5 0.6 20.5 0.4 -20.5 0.4 -20.5 0.6 20 0.6 20 0.2 -19.2 c0.1 -12.1 0.6 -19.3 1.2 -19.3 0.6 0 1 5.5 1 14.5 l0 14.5 2.4 0 c2.1 0 2.4 0.5 2.9 5.3 0.5 5.5 0.1 7 -1.2 4.8 -0.7 -1 -1 -0.9 -1.4 0.3 -0.5 1.2 -2.1 1.6 -7.2 1.6 -3.7 0 -7.5 -0.5 -8.5 -1 -1.3 -0.7 -2.1 -0.7 -2.5 0 -0.9 1.4 -10.9 1.2 -12.3 -0.2z"/>
  <path d="M93.7 64.8 c0.1 -12.1 0.5 -22.3 0.7 -22.6 0.3 -0.2 1.2 0.3 2.1 1.1 1.2 1.3 1.5 5 1.7 20.9 l0.2 19.3 0.6 -19 c0.3 -11.1 0.7 -16.9 1.1 -14 l0.5 5 0.2 -5.2 c0.2 -3.9 0.6 -5.3 1.6 -5.3 0.8 0 1.8 0.5 2.1 1 0.4 0.6 1.1 0.8 1.6 0.5 0.5 -0.4 0.9 0.4 1 1.7 0.1 2.3 0.1 2.3 0.9 -0.2 0.5 -1.5 0.9 5.5 1 17 0.2 10.7 0.5 18.4 0.7 17.1 0.4 -1.9 0.7 -2.1 1.4 -1 0.5 0.8 0.9 -6 0.9 -17.5 0 -16.7 0.2 -18.7 1.6 -18.2 0.9 0.3 2.5 0.6 3.6 0.6 1.7 0 2 0.4 1.5 3 -0.4 1.7 -0.2 3 0.3 3 0.5 0 1.1 -1.2 1.3 -2.7 0.2 -1.6 0.4 0.6 0.4 4.7 0 5.5 -0.1 6.4 -0.6 3.5 -0.3 -2.2 -0.9 -3.5 -1.2 -3 -0.6 1.1 -0.6 4.4 0.1 20 l0.4 10 0.6 -10 0.6 -10 0.4 10 0.4 10 0.6 -10 0.6 -10 0.4 10.5 0.4 10.5 0.6 -10.5 0.6 -10.5 0.2 10.3 c0.2 8.4 0.5 10.2 1.7 10.2 1.7 0 3.2 -2.7 2.1 -3.8 -0.4 -0.3 -1.1 0 -1.6 0.8 -0.8 1.3 -1 1.2 -1 -0.2 0 -1 0.7 -1.8 1.5 -1.8 1.3 0 1.5 -2.5 1.5 -16.4 0 -9.9 0.4 -16.7 1 -17.1 1 -0.6 1.4 0.7 1.1 3.2 -0.1 0.6 0.3 1.4 0.9 1.8 0.5 0.3 1 1.5 1 2.6 0 1 0.5 1.9 1.1 1.9 0.6 0 0.9 -0.9 0.6 -2 -0.4 -1.5 0.1 -2.2 2 -2.7 1.5 -0.3 3.4 -0.1 4.4 0.5 1 0.7 2.5 0.9 3.4 0.6 1.3 -0.5 1.5 1.4 1.5 15.8 0 11.4 -0.4 16.8 -1.2 17.6 -1.5 1.5 -11.4 1.6 -12.3 0.2 -0.5 -0.8 -1.1 -0.7 -2 0 -0.9 0.8 -4 1 -8.7 0.6 -9 -0.6 -7.9 -0.6 -16 0 -3.7 0.3 -7.5 0.1 -8.6 -0.5 -1.1 -0.6 -2.3 -0.6 -2.8 -0.1 -0.5 0.5 -0.8 -8 -0.7 -21.2z m47.6 4.2 c0.2 -4.7 0 -7.6 -0.4 -6.5 -0.4 1.1 -0.7 5.6 -0.7 10 0 9.6 0.5 8.1 1.1 -3.5z m-35.6 -13.2 c-0.1 -4.6 -0.3 -1.1 -0.3 7.7 0 8.8 0.2 12.5 0.3 8.3 0.2 -4.2 0.2 -11.4 0 -16z m31.1 9.5 c-0.1 -6.5 -0.3 -10 -0.5 -7.8 -0.6 6.2 -1.6 7.5 -2.3 3 -0.5 -2.6 -0.7 -0.3 -0.6 6.2 0.1 9 0.3 10.3 1.8 10.3 1.6 0 1.7 -1.2 1.6 -11.7z"/>
  <path d="M110.4 64 c0 -8.5 0.2 -12 0.3 -7.7 0.2 4.2 0.2 11.2 0 15.5 -0.1 4.2 -0.3 0.7 -0.3 -7.8z"/>
  <path d="M122.3 54.5 c0 -3.8 0.2 -5.3 0.4 -3.2 0.2 2 0.2 5.2 0 7 -0.2 1.7 -0.4 0.1 -0.4 -3.8z"/>
  <path d="M124.3 54 c0 -4.1 0.2 -5.8 0.4 -3.7 0.2 2 0.2 5.4 0 7.5 -0.2 2 -0.4 0.3 -0.4 -3.8z"/>
 </g>
 <g fill="#ccc9d0">
  <path d="M93.2 85 c0.4 -3.1 2.4 -3.7 3.1 -0.9 0.3 1.1 0.3 1.8 0 1.5 -0.4 -0.3 -1.3 0 -2.1 0.6 -1.1 1 -1.3 0.8 -1 -1.2z"/>
  <path d="M78.6 84.4 c-0.3 -0.9 -0.6 -2.7 -0.6 -4.1 0 -1.5 -0.3 -2.3 -0.7 -1.9 -0.4 0.4 -0.8 1.4 -0.8 2.3 0 0.8 -0.9 2.1 -2 2.9 -2 1.3 -2 1.1 -1.7 -18.2 0.2 -14.6 0.6 -19.4 1.5 -19.1 0.6 0.2 1.9 -0.3 2.7 -1.2 1.3 -1.3 1.6 0.5 2.1 17 0.3 10.1 1 19.6 1.4 21.2 0.8 2.9 -0.8 3.9 -1.9 1.1z"/>
  <path d="M48.7 84.3 c-0.4 -0.3 -0.7 -7.5 -0.7 -15.8 0 -15.1 0 -15.2 2.5 -16.5 1.4 -0.7 2.8 -1 3.2 -0.6 0.5 0.4 0.9 7.3 1.1 15.4 0.4 16.6 2.1 17.8 2.3 1.7 l0.2 -10 0.7 11.5 c0.8 14.9 0.8 15 -4.4 15 -2.4 0 -4.6 -0.3 -4.9 -0.7z m5.3 -3.4 c0 -0.5 -0.5 -0.8 -1.2 -0.6 -0.6 0.1 -1.4 -0.9 -1.8 -2.3 -0.6 -2.4 -0.7 -2.4 -1.1 0.6 -0.5 2.8 -0.2 3.2 1.8 3.2 1.3 0 2.3 -0.4 2.3 -0.9z"/>
  <path d="M100.8 82.6 c0.3 -1.3 0.1 -1.7 -0.6 -1.2 -0.9 0.5 -1.2 -3.9 -1 -17.6 0.1 -11.5 0.4 -16.4 0.8 -13.3 l0.7 5 0.1 -5.2 c0.2 -4 0.6 -5.3 1.7 -5.3 1.3 0 1.5 2.9 1.5 19.9 0 18.8 -0.1 20 -1.9 19.8 -1.3 -0.1 -1.7 -0.7 -1.3 -2.1z"/>
  <path d="M116.2 83.7 c-0.7 -0.8 -1.2 -8.4 -1.4 -19.5 l-0.3 -18.2 2.4 0 c2.1 0 2.3 0.3 1.8 2.9 -0.4 1.9 -0.2 3.1 0.6 3.4 0.8 0.3 0.9 0.8 0.2 1.5 -0.6 0.7 -0.8 6.8 -0.5 16.1 0.5 15.1 0 17.3 -2.8 13.8z"/>
  <path d="M133.7 84.4 c-0.4 -0.4 -0.7 -2.2 -0.7 -4.1 0 -2.6 0.4 -3.3 2 -3.3 1.8 0 1.9 -0.7 1.9 -11.5 0 -6.4 -0.4 -11.3 -0.8 -11 -0.5 0.3 -1.1 -0.2 -1.5 -1 -0.8 -2.1 3.9 -3.1 7 -1.5 2.3 1.3 2.4 1.6 2.4 13.9 0 9.2 -0.3 12.2 -1.1 11.4 -0.7 -0.7 -1.1 -5.5 -1.1 -12.5 l-0.1 -11.3 -0.8 7.5 c-0.5 4.1 -0.8 10.2 -0.7 13.5 0.3 5.2 0.5 6 2.1 5.7 1.4 -0.3 1.8 0.2 1.5 2 -0.3 2 -1 2.3 -4.8 2.6 -2.5 0.2 -4.9 0 -5.3 -0.4z m5 -12.6 c-0.2 -1.3 -0.4 -0.3 -0.4 2.2 0 2.5 0.2 3.5 0.4 2.3 0.2 -1.3 0.2 -3.3 0 -4.5z"/>
  <path d="M107.4 66.5 c0 -9.3 0.2 -13.3 0.3 -8.8 0.2 4.5 0.2 12.2 0 17 -0.1 4.8 -0.3 1.2 -0.3 -8.2z"/>
  <path d="M128 81 c-0.9 -0.6 -1 -1 -0.3 -1 0.6 0 1.4 -0.8 1.6 -1.7 0.3 -1.1 0.5 -0.7 0.6 1 0.1 3 0.1 3 -1.9 1.7z"/>
  <path d="M133.3 71 c0 -2.5 0.2 -3.5 0.4 -2.2 0.2 1.2 0.2 3.2 0 4.5 -0.2 1.2 -0.4 0.2 -0.4 -2.3z"/>
  <path d="M135.3 71 c0 -2.5 0.2 -3.5 0.4 -2.2 0.2 1.2 0.2 3.2 0 4.5 -0.2 1.2 -0.4 0.2 -0.4 -2.3z"/>
  <path d="M46.2 61.8 c-0.1 -5.3 0.1 -9.9 0.6 -10.1 0.4 -0.3 0.6 2.7 0.4 6.6 -0.4 12.2 -0.9 13.6 -1 3.5z"/>
  <path d="M133.8 60.1 c-0.2 -2.5 0 -4 0.7 -3.8 1.4 0.5 1.9 5.7 0.7 6.9 -0.6 0.6 -1.1 -0.5 -1.4 -3.1z"/>
  <path d="M90 48 c0 -1.1 -0.7 -2 -1.5 -2 -0.8 0 -1.5 -0.6 -1.5 -1.2 0 -0.9 -0.4 -0.8 -1 0.2 -0.7 1.1 -1 0.8 -0.9 -1.5 0 -1.6 0.3 -2.5 0.5 -1.9 0.3 0.6 1.6 0.9 2.9 0.6 2.3 -0.4 2.5 -0.2 2.5 3.7 0 2.2 -0.2 4.1 -0.5 4.1 -0.3 0 -0.5 -0.9 -0.5 -2z"/>
  <path d="M93.7 48.1 c-0.6 -2.5 0.3 -7.1 1.4 -7.1 0.5 0 0.9 0.6 0.9 1.4 0 0.8 0.6 1.7 1.3 1.9 1 0.4 1 0.6 0 0.6 -0.7 0.1 -1.3 1.2 -1.3 2.6 0 2.9 -1.5 3.3 -2.3 0.6z"/>
 </g>
 <g fill="#a8a0a5">
  <path d="M82.6 83.3 c0.2 -2.1 0.6 -10.8 0.9 -19.3 0.5 -12.8 1.9 -26.7 2.4 -22.3 0 0.6 1.2 1 2.6 0.8 l2.5 -0.2 0.2 21.6 c0.1 13.8 0.4 19.2 0.8 15.1 l0.7 -6.5 0.3 5.5 c0.3 4.7 0.4 4.9 0.7 1.8 0.6 -5.1 2.3 -4.9 2.3 0.2 0 2.2 -0.4 4 -1 4 -0.5 0 -1 0.7 -1 1.5 0 1.2 -1.3 1.5 -5.9 1.5 l-5.9 0 0.4 -3.7z m4.9 -3.7 c0.4 -2.3 0.5 -5.7 0.2 -7.6 -0.3 -2.8 -0.4 -2.6 -0.6 1.5 0 2.8 -0.4 6.1 -0.8 7.5 -0.7 2.4 -0.8 2.3 -1.4 -1 l-0.6 -3.5 -0.2 4.2 c-0.1 5.7 2.5 4.8 3.4 -1.1z"/>
  <path d="M78 71 c0 -5.3 0.4 -9 1 -9 0.6 0 1 3.7 1 9 0 5.3 -0.4 9 -1 9 -0.6 0 -1 -3.7 -1 -9z"/>
  <path d="M81.3 72.5 c0 -4.4 0.2 -6.1 0.4 -3.7 0.2 2.3 0.2 5.9 0 8 -0.2 2 -0.4 0.1 -0.4 -4.3z"/>
  <path d="M50.4 62 c0 -5.2 0.1 -7.4 0.3 -4.7 0.2 2.6 0.2 6.8 0 9.5 -0.2 2.6 -0.3 0.4 -0.3 -4.8z"/>
  <path d="M53.3 58.5 c0 -3.3 0.2 -4.5 0.4 -2.7 0.2 1.8 0.2 4.5 0 6 -0.2 1.5 -0.4 0 -0.4 -3.3z"/>
  <path d="M94 42.9 c0 -1.7 0.4 -2.8 1 -2.4 0.6 0.3 1 1.7 1 3.1 0 1.3 -0.4 2.4 -1 2.4 -0.5 0 -1 -1.4 -1 -3.1z"/>
 </g>
 <g fill="#962430">
  <path d="M79.6 85.4 c-0.9 -0.8 -1.6 -2.9 -1.6 -4.5 0 -1.6 -0.4 -2.9 -1 -2.9 -0.6 0 -1 -6.2 -1 -16.5 0 -10.3 0.4 -16.5 1 -16.5 0.6 0 1 -0.9 1 -2 0 -1.1 0.5 -2 1 -2 0.6 0 1 7.8 1.1 21.3 0.1 11.9 0.5 19.7 0.9 17.7 l0.7 -3.5 0.4 4.5 c0.2 2.5 0.6 -2 0.9 -10 l0.6 -14.5 0.2 14.2 0.2 14.2 4 -0.2 c3.3 -0.2 4 -0.6 4 -2.2 0 -1.7 0.2 -1.7 1 -0.5 0.6 1 1 -5.7 1 -19.7 0 -13.5 0.4 -21.3 1 -21.3 1.5 0 1.3 43.3 -0.2 44.8 -1.8 1.8 -13.3 1.5 -15.2 -0.4z"/>
  <path d="M92.2 76 c0 -1.9 0.2 -2.7 0.5 -1.7 0.2 0.9 0.2 2.5 0 3.5 -0.3 0.9 -0.5 0.1 -0.5 -1.8z"/>
 </g>
 <g fill="#7c797f">
  <path d="M99.4 64 c0 -10.2 0.2 -14.3 0.3 -9.2 0.2 5 0.2 13.4 0 18.5 -0.1 5 -0.3 0.9 -0.3 -9.3z"/>
  <path d="M76.4 61.5 c0 -9.3 0.2 -13.3 0.3 -8.8 0.2 4.5 0.2 12.2 0 17 -0.1 4.8 -0.3 1.2 -0.3 -8.2z"/>
  <path d="M46.4 61.5 c0 -5.5 0.1 -7.6 0.3 -4.7 0.2 2.9 0.2 7.4 0 10 -0.2 2.6 -0.3 0.2 -0.3 -5.3z"/>
  <path d="M120.3 61.5 c0 -3.8 0.2 -5.3 0.4 -3.2 0.2 2 0.2 5.2 0 7 -0.2 1.7 -0.4 0.1 -0.4 -3.8z"/>
  <path d="M122.3 63 c0 -3 0.2 -4.3 0.4 -2.7 0.2 1.5 0.2 3.9 0 5.5 -0.2 1.5 -0.4 0.2 -0.4 -2.8z"/>
  <path d="M124.3 63 c0 -3 0.2 -4.3 0.4 -2.7 0.2 1.5 0.2 3.9 0 5.5 -0.2 1.5 -0.4 0.2 -0.4 -2.8z"/>
 </g>
</svg>