<?xml version="1.0" standalone="no"?>
<!DOCTYPE svg PUBLIC "-//W3C//DTD SVG 20010904//EN"
 "http://www.w3.org/TR/2001/REC-SVG-20010904/DTD/svg10.dtd">
<svg version="1.0" xmlns="http://www.w3.org/2000/svg"
 width="415.000000pt" height="600.000000pt" viewBox="0 0 415.000000 600.000000"
 preserveAspectRatio="xMidYMid meet">
<metadata>
Created by potrace 1.16, written by Peter Selinger 2001-2019
</metadata>
<g transform="translate(0.000000,600.000000) scale(0.100000,-0.100000)"
fill="#000000" stroke="none">
<path d="M2895 5964 c-174 -50 -589 -188 -975 -324 -1349 -475 -1675 -601
-1715 -664 -21 -33 -42 -240 -70 -696 -72 -1180 -135 -2840 -135 -3571 l0
-316 147 -149 c222 -224 262 -243 512 -231 149 7 220 24 320 78 222 119 1714
731 2586 1061 88 33 182 71 208 85 57 28 132 95 153 134 42 82 74 478 119
1454 8 182 28 623 45 980 65 1400 68 1496 50 1644 -20 153 -40 171 -194 183
-258 18 -445 86 -636 229 -107 80 -219 139 -265 139 -16 -1 -84 -17 -150 -36z
m280 -114 c8 -13 -56 -53 -160 -98 -49 -22 -310 -121 -580 -222 -269 -100
-816 -304 -1215 -452 -399 -149 -745 -273 -771 -275 -42 -5 -47 -3 -78 32 -24
28 -31 45 -29 68 3 28 10 36 58 59 152 73 1026 365 2445 817 239 76 317 93
330 71z m160 -140 c0 -40 -143 -109 -680 -325 -915 -368 -1820 -695 -1927
-695 -52 0 -32 29 45 64 148 68 836 340 1822 720 308 119 587 228 620 241 33
14 74 23 90 22 25 -2 30 -6 30 -27z m364 -174 c8 -10 8 -16 -1 -23 -27 -22
-448 -176 -893 -326 -842 -285 -1399 -457 -1482 -457 -22 0 -24 2 -12 16 18
21 51 36 361 155 889 341 1601 586 1838 634 89 18 175 19 189 1z m283 -356
c-6 -382 -92 -2155 -147 -3030 -33 -515 -54 -717 -77 -732 -86 -55 -2003 -808
-2403 -944 -94 -32 -101 -33 -113 -17 -15 20 -15 15 17 438 11 149 41 657 66
1130 64 1220 82 1547 105 1911 20 311 53 681 61 688 16 15 2236 686 2444 739
51 13 50 15 47 -183z m-3484 -556 c174 -76 220 -88 333 -87 100 1 268 23 378
50 74 18 77 16 86 -62 15 -119 -39 -1022 -66 -1091 -6 -18 -31 -30 -118 -58
-145 -47 -259 -66 -396 -66 -133 0 -198 11 -274 46 -74 33 -106 66 -133 133
-20 52 -22 76 -26 341 -4 269 11 788 25 838 5 20 10 22 37 16 17 -4 86 -31
154 -60z m-117 -1399 c168 -80 213 -90 404 -89 122 1 193 7 303 26 78 13 143
23 145 22 1 -2 -8 -191 -20 -421 -47 -894 -68 -1150 -101 -1242 -14 -36 -26
-50 -57 -66 -37 -19 -59 -20 -305 -19 -211 0 -280 3 -340 17 -123 28 -183 91
-196 205 -9 83 2 633 21 1122 8 201 15 395 15 433 0 37 4 67 9 67 5 0 60 -25
122 -55z m18 -1946 c162 -55 251 -64 479 -50 103 7 199 14 215 17 l27 6 -2
-467 -3 -468 -115 -34 c-161 -47 -345 -83 -427 -83 -119 0 -238 47 -324 127
-81 76 -83 84 -76 446 6 306 20 505 38 539 12 22 38 18 188 -33z"/>
</g>
</svg>
