<?xml version="1.0" standalone="no"?>
<!DOCTYPE svg PUBLIC "-//W3C//DTD SVG 20010904//EN"
 "http://www.w3.org/TR/2001/REC-SVG-20010904/DTD/svg10.dtd">
<svg version="1.0" xmlns="http://www.w3.org/2000/svg"
 width="300.000000pt" height="239.000000pt" viewBox="0 0 300.000000 239.000000"
 preserveAspectRatio="xMidYMid meet">
<metadata>
Created by potrace 1.10, written by Peter Selinger 2001-2011
</metadata>
<g transform="translate(0.000000,239.000000) scale(0.100000,-0.100000)"
fill="#000000" stroke="none">
<path d="M864 1755 c-11 -28 7 -35 100 -35 l92 0 12 -45 c12 -46 35 -66 54
-47 7 7 4 30 -12 76 l-22 66 -109 0 c-87 0 -111 -3 -115 -15z"/>
<path d="M1547 1590 c-429 -5 -449 -6 -463 -24 -21 -29 -17 -64 11 -91 l24
-25 446 0 c400 0 446 2 443 16 -3 14 -51 15 -439 14 -419 -1 -436 0 -453 19
-14 15 -15 24 -6 40 11 21 15 21 455 21 381 0 445 2 445 14 0 8 -3 16 -7 18
-5 2 -210 1 -456 -2z"/>
<path d="M1975 1529 c-4 -6 -5 -12 -2 -15 2 -3 7 2 10 11 7 17 1 20 -8 4z"/>
<path d="M1575 1433 c-414 -3 -420 -3 -437 -24 -24 -28 -23 -64 2 -89 19 -19
33 -20 445 -20 371 0 425 2 425 15 0 13 -53 15 -420 15 -391 0 -420 1 -429 18
-6 11 -6 24 0 35 9 16 42 17 424 17 396 0 451 4 419 28 -5 4 -198 6 -429 5z"/>
<path d="M1222 1263 c-33 -28 -33 -72 0 -102 21 -20 33 -20 402 -18 331 2 381
4 381 17 0 13 -49 15 -373 16 -205 1 -379 5 -387 8 -18 7 -20 37 -3 54 9 9
109 12 390 12 329 0 378 2 378 15 0 13 -49 15 -384 15 -351 0 -386 -1 -404
-17z"/>
<path d="M1312 1120 c-46 -19 -54 -97 -13 -119 11 -7 153 -11 362 -11 302 -1
343 1 345 14 2 14 -37 16 -341 16 -287 0 -344 2 -355 15 -13 16 -5 55 13 56 7
0 163 1 347 2 290 2 335 4 335 17 0 13 -45 15 -335 17 -184 1 -345 -2 -358 -7z"/>
<path d="M1970 1054 c0 -8 5 -12 10 -9 6 3 10 10 10 16 0 5 -4 9 -10 9 -5 0
-10 -7 -10 -16z"/>
<path d="M1402 940 c-60 -56 -24 -150 58 -150 48 0 84 37 84 85 0 73 -89 114
-142 65z m89 -46 c17 -21 0 -49 -31 -49 -31 0 -48 28 -31 49 8 9 21 16 31 16
10 0 23 -7 31 -16z m-70 -61 c13 -16 12 -17 -3 -4 -17 13 -22 21 -14 21 2 0
10 -8 17 -17z"/>
<path d="M1765 935 c-54 -53 -16 -145 60 -145 49 0 85 36 85 85 0 25 -8 44
-25 60 -16 17 -35 25 -60 25 -25 0 -44 -8 -60 -25z m90 -60 c0 -27 -3 -30 -30
-30 -21 0 -31 5 -33 18 -6 33 6 49 35 45 24 -3 28 -8 28 -33z"/>
</g>
</svg>
